<?xml version="1.0" encoding="utf-8"?>
<!-- Generator: Adobe Illustrator 25.2.1, SVG Export Plug-In . SVG Version: 6.00 Build 0)  -->
<svg version="1.1" id="Layer_1" xmlns="http://www.w3.org/2000/svg" xmlns:xlink="http://www.w3.org/1999/xlink" x="0px" y="0px"
	 viewBox="0 0 54 24" style="enable-background:new 0 0 54 24;" xml:space="preserve">
<style type="text/css">
	.st0{fill:#454547;}
</style>
<g>
	<path class="st0" d="M7.86,7.17c-1.92,0.06-3.63,0.54-5.1,1.99V7.38H0.51v15.64h2.24V14.4c0.01-2.95,2.04-4.98,5.09-4.98
		c0.1,0,0.21,0,0.32,0.01l0.21,0.01V7.19L8.19,7.18C8.08,7.17,7.97,7.17,7.87,7.17H7.86z"/>
	<path class="st0" d="M36.25,3.35l2.02-2.73v4.59h-0.68V2.74l-1.33,1.78l-1.33-1.78v2.47h-0.68V0.62L36.25,3.35z M20.6,4.02
		c-0.01-0.24-0.12-0.7-0.74-1.2l-0.54-0.47c-0.23-0.18-0.34-0.38-0.34-0.61c0-0.26,0.17-0.45,0.44-0.46c0,0,0.34-0.04,0.53,0.24
		l0.01,0.01l0.55-0.37L20.5,1.16c-0.09-0.15-0.52-0.55-1.09-0.52c-0.33,0.02-0.61,0.14-0.81,0.34c-0.21,0.21-0.31,0.5-0.29,0.83
		c0.02,0.39,0.24,0.74,0.7,1.12l0.5,0.45c0.28,0.23,0.4,0.42,0.42,0.65c0.01,0.17-0.04,0.33-0.15,0.45c-0.1,0.11-0.2,0.16-0.35,0.16
		l-0.03,0c-0.43,0-0.6-0.3-0.7-0.48l-0.03-0.05l-0.58,0.28c0.05,0.15,0.37,0.89,1.3,0.89l0.02,0c0.34-0.02,0.65-0.15,0.87-0.38
		C20.5,4.67,20.62,4.35,20.6,4.02z M7.16,0.59c-1.3,0-2.37,1.06-2.37,2.37c0,1.3,1.06,2.37,2.37,2.37c1.3,0,2.37-1.06,2.37-2.37
		C9.52,1.65,8.46,0.59,7.16,0.59z M7.16,4.64c-0.93,0-1.68-0.75-1.68-1.68c0-0.93,0.75-1.68,1.68-1.68s1.68,0.75,1.68,1.68
		C8.84,3.89,8.08,4.64,7.16,4.64z M30.99,0.59c-1.3,0-2.37,1.06-2.37,2.37c0,1.3,1.06,2.37,2.37,2.37c1.3,0,2.37-1.06,2.37-2.37
		C33.35,1.65,32.29,0.59,30.99,0.59z M30.99,4.64c-0.93,0-1.68-0.75-1.68-1.68c0-0.93,0.75-1.68,1.68-1.68
		c0.93,0,1.68,0.75,1.68,1.68C32.67,3.89,31.91,4.64,30.99,4.64z M3.89,5.32V0.71H3.21v2.87L0.51,0.62v4.59H1.2V2.39l0.02,0.03
		L3.89,5.32z M24.06,0.71h-2.88v0.63h1.08v3.87h0.71V1.34h1.08V0.71z M27.06,3.52l0.01-0.01c0.08-0.04,0.15-0.08,0.21-0.13
		c0.37-0.27,0.59-0.73,0.59-1.21c0-0.81-0.6-1.46-1.33-1.46h-1.58v4.5h0.69l0-1.58h0.01c0,0,0.37,0,0.65,0h0.01l0,0.01l1.04,1.57
		h0.82L27.06,3.52z M26.47,2.94h-0.82V1.38l0.82,0c0.39,0,0.71,0.35,0.71,0.78C27.18,2.59,26.86,2.94,26.47,2.94z M15.6,0.71h-1.11
		v4.5h1.11c1.09,0,1.95-1.01,1.95-2.25C17.55,1.72,16.68,0.71,15.6,0.71z M15.58,4.56h-0.41V1.36h0.41c0.74,0,1.29,0.72,1.29,1.6
		C16.88,3.84,16.32,4.56,15.58,4.56z M12.51,3.52l0.01-0.01c0.08-0.04,0.15-0.08,0.21-0.13c0.37-0.27,0.59-0.73,0.59-1.21
		c0-0.81-0.6-1.46-1.33-1.46h-1.58v4.5h0.69l0-1.58h0.01c0,0,0.37,0,0.65,0h0.01l0,0.01l1.04,1.57h0.82L12.51,3.52z M11.92,2.94
		H11.1V1.38l0.82,0c0.39,0,0.71,0.35,0.71,0.78C12.64,2.59,12.32,2.94,11.92,2.94z"/>
	<polygon class="st0" points="50.68,23.03 53.49,23.03 46.85,13.49 52.89,7.24 49.79,7.24 42.59,14.68 42.59,0.59 40.35,0.59 
		40.35,23.03 42.59,23.03 42.59,17.96 43.06,17.41 45.24,15.16 	"/>
	<path class="st0" d="M37.09,18.95l-0.12,0.13c-1.28,1.35-2.87,2.06-4.58,2.06c-3.43,0-6.11-2.64-6.11-6.01
		c0-3.31,2.62-6.01,5.84-6.01c1.67,0,3.24,0.66,4.52,1.9l0.13,0.13l1.44-1.64L38.1,9.4c-1.62-1.62-3.63-2.44-5.98-2.44
		c-4.55,0-8.11,3.59-8.11,8.18c0,2.34,0.91,4.46,2.58,5.97c1.56,1.42,3.64,2.21,5.84,2.21c2.38,0,4.63-0.99,6.18-2.71l0.12-0.13
		L37.09,18.95z"/>
	<path class="st0" d="M22,11.79c-0.05-1.33-0.79-2.57-1.98-3.48c-1.16-0.9-2.69-1.39-4.31-1.39c0,0,0,0,0,0
		c-3.44,0-6.24,2.26-6.24,5.05l2.17,0c0-1.57,1.86-2.89,4.07-2.89c0,0,0,0,0,0c1.14,0,2.2,0.33,2.98,0.94
		c0.65,0.5,1.02,1.13,1.08,1.79c0.06,1.23-0.6,1.34-0.82,1.38c-5.19,0.87-6.44,1.18-6.44,1.18c-1.75,0.48-2.31,1.17-2.8,1.79
		c-0.5,0.63-0.75,1.52-0.75,2.62c0,0.8,0.14,1.5,0.42,2.09c0.28,0.59,0.67,1.08,1.16,1.46c0.49,0.38,1.06,0.66,1.71,0.84
		c0.64,0.17,1.34,0.25,2.08,0.26c1.62,0.01,4.3-0.25,5.45-1.84v1.45h2.25l0-11.14C22.01,11.85,22,11.82,22,11.79z M19.75,17.02
		c0,2.72-1.85,3.43-3.09,3.84c-0.62,0.21-4.44,1.03-5.33-1.24c-0.61-1.55,0.44-2.78,1.58-3.08c0.7-0.19,6.84-1.29,6.84-1.29V17.02z"
		/>
	<path class="st0" d="M51.4,7.45"/>
</g>
</svg>
